<svg xmlns="http://www.w3.org/2000/svg" x="0px" y="0px"
width="24" height="24"
viewBox="0 0 172 172"
style=" fill:#000000;"><g fill="none" fill-rule="nonzero" stroke="none" stroke-width="1" stroke-linecap="butt" stroke-linejoin="miter" stroke-miterlimit="10" stroke-dasharray="" stroke-dashoffset="0" font-family="none" font-weight="none" font-size="none" text-anchor="none" style="mix-blend-mode: normal"><path d="M0,172v-172h172v172z" fill="none"></path><g fill="#ffffff"><path d="M157.66667,143.33333l-14.33333,14.33333l-43,-43v-14.33333h14.33333z"></path><path d="M64.5,114.66667c-27.95,0 -50.16667,-22.21667 -50.16667,-50.16667c0,-27.95 22.21667,-50.16667 50.16667,-50.16667c27.95,0 50.16667,22.21667 50.16667,50.16667c0,27.95 -22.21667,50.16667 -50.16667,50.16667zM64.5,28.66667c-20.06667,0 -35.83333,15.76667 -35.83333,35.83333c0,20.06667 15.76667,35.83333 35.83333,35.83333c20.06667,0 35.83333,-15.76667 35.83333,-35.83333c0,-20.06667 -15.76667,-35.83333 -35.83333,-35.83333z"></path><path d="M90.47037,96.04225l5.06831,-5.06689l17.73412,17.73907l-5.06831,5.06689z"></path></g></g></svg>